<?xml version="1.0" encoding="UTF-8" ?>
<!DOCTYPE svg PUBLIC "-//W3C//DTD SVG 1.1//EN" "http://www.w3.org/Graphics/SVG/1.1/DTD/svg11.dtd">
<svg width="1600pt" height="500pt" viewBox="0 0 1600 500" version="1.1" xmlns="http://www.w3.org/2000/svg">
<path fill="#121212" stroke="#121212" stroke-width="0.09375" opacity="1.00" d=" M 1099.4 14.3 C 1122.3 13.3 1129.6 40.8 1127.3 59.3 C 1127.9 64.4 1122.4 70.1 1117.6 67.5 C 1107.3 59.0 1119.7 43.0 1108.2 34.8 C 1095.0 29.8 1086.3 44.4 1082.7 54.7 C 1070.2 106.4 1078.4 159.9 1075.4 212.4 C 1068.5 245.8 1077.6 282.3 1061.5 313.5 C 1056.6 322.2 1043.4 323.7 1036.8 316.2 C 1027.2 309.1 1023.5 297.5 1019.0 287.0 C 1008.8 268.1 1002.4 247.5 997.1 226.9 C 985.1 185.3 969.3 144.6 952.7 104.5 C 947.4 88.3 942.7 71.7 934.1 56.9 C 930.8 51.4 928.6 59.7 929.0 63.0 C 928.4 100.9 936.7 138.2 939.0 176.0 C 939.6 211.8 944.9 247.3 947.1 283.0 C 947.9 299.9 943.8 319.8 928.1 329.1 C 912.7 336.3 896.0 317.9 897.3 303.4 C 903.4 294.2 915.2 311.4 922.3 301.3 C 938.8 277.8 931.6 247.5 929.2 220.9 C 929.6 159.1 913.6 98.3 916.4 36.4 C 920.1 28.8 930.5 28.0 936.2 33.8 C 951.2 55.7 958.2 81.6 966.7 106.3 C 984.6 146.3 998.1 188.0 1011.3 229.7 C 1015.0 246.8 1021.8 263.0 1029.2 278.8 C 1032.3 283.6 1039.1 291.9 1044.7 285.7 C 1062.4 265.6 1058.7 237.7 1062.9 213.0 C 1063.1 174.3 1063.1 135.7 1063.0 97.0 C 1065.8 76.5 1065.9 55.0 1075.4 36.3 C 1079.7 25.9 1087.7 16.3 1099.4 14.3 Z" />
<path fill="#121212" stroke="#121212" stroke-width="0.09375" opacity="1.00" d=" M 1492.4 19.4 C 1514.3 12.0 1536.3 34.0 1529.8 55.8 C 1521.3 81.0 1505.0 103.5 1485.2 121.2 C 1483.2 123.1 1478.5 128.0 1482.7 129.3 C 1514.3 132.8 1547.4 125.1 1578.3 134.7 C 1593.8 141.5 1600.9 165.4 1589.7 178.7 C 1564.4 203.2 1528.5 211.0 1495.0 216.0 C 1457.0 218.6 1418.3 216.9 1381.4 206.7 C 1374.7 203.3 1366.7 203.7 1360.6 207.8 C 1350.8 211.3 1344.9 198.7 1352.7 192.8 C 1372.4 180.8 1392.9 168.9 1408.8 151.8 C 1425.5 136.4 1445.9 125.1 1460.3 107.3 C 1478.2 88.7 1497.3 66.5 1497.8 39.3 C 1494.2 25.5 1477.7 35.4 1468.6 37.5 C 1433.7 52.8 1396.6 69.5 1372.6 100.5 C 1360.8 117.9 1347.7 134.9 1341.1 155.1 C 1338.7 162.2 1336.2 177.9 1325.9 173.7 C 1330.5 140.1 1351.0 111.6 1371.4 85.3 C 1393.2 61.3 1422.7 46.2 1451.9 32.9 C 1464.6 26.6 1478.3 21.9 1492.4 19.4 M 1536.4 139.5 C 1523.3 141.0 1510.0 138.8 1497.0 140.9 C 1483.3 142.2 1468.5 138.1 1456.0 145.0 C 1435.8 157.9 1417.9 174.0 1397.6 186.6 C 1391.7 189.3 1391.9 196.0 1399.0 196.0 C 1443.4 202.4 1491.5 206.6 1534.0 188.9 C 1548.2 183.0 1569.1 176.0 1568.0 157.0 C 1568.5 141.8 1548.5 137.4 1536.4 139.5 Z" />
<path fill="#121212" stroke="#121212" stroke-width="0.09375" opacity="1.00" d=" M 281.4 20.4 C 294.3 19.5 309.6 18.9 319.8 28.2 C 336.9 45.6 334.6 73.4 330.5 95.5 C 329.5 102.1 324.3 119.3 316.3 111.5 C 315.2 97.7 323.9 85.2 321.0 71.0 C 323.0 51.8 302.9 35.0 284.3 37.1 C 264.8 44.0 243.3 52.5 232.6 71.6 C 217.8 92.9 206.8 122.9 220.8 147.3 C 235.3 179.5 251.4 211.7 255.8 247.1 C 257.2 254.4 255.4 263.4 261.5 268.8 C 277.2 266.2 292.4 259.0 308.9 261.0 C 329.3 265.6 340.5 285.0 352.4 300.5 C 366.5 312.2 388.2 317.9 404.7 307.7 C 410.6 305.0 419.6 297.8 424.1 306.0 C 430.5 316.1 421.0 328.8 410.1 330.1 C 393.2 333.3 373.6 333.9 359.5 322.6 C 336.8 310.2 329.7 279.4 303.7 272.1 C 289.1 272.2 274.3 275.8 261.3 282.3 C 253.1 293.8 257.9 308.9 254.8 321.8 C 252.2 360.4 236.7 399.3 208.0 426.0 C 178.0 457.8 138.7 490.3 92.3 485.7 C 69.5 480.7 69.2 451.2 75.2 433.4 C 88.0 400.4 116.5 376.1 141.3 351.8 C 133.1 354.3 126.0 359.4 118.7 363.8 C 93.6 375.7 65.2 380.4 37.5 378.6 C 24.9 375.3 8.7 370.8 6.0 355.8 C 9.2 333.5 28.3 318.9 44.3 305.3 C 85.3 270.3 138.6 256.2 190.5 247.5 C 207.7 245.6 224.9 248.3 242.0 248.0 C 244.8 228.3 233.8 209.8 227.7 191.5 C 219.5 171.2 208.4 152.0 201.9 131.0 C 196.3 108.6 203.0 84.3 217.9 66.9 C 232.6 44.7 254.6 25.6 281.4 20.4 M 205.4 257.6 C 146.2 265.2 84.9 283.4 40.9 325.9 C 33.1 333.9 21.5 341.7 21.8 353.9 C 34.6 357.7 48.5 352.8 61.6 351.7 C 102.7 340.9 141.7 322.8 183.5 314.5 C 201.1 302.9 218.4 290.6 237.4 281.3 C 243.8 278.7 248.2 271.3 245.2 264.9 C 234.7 255.2 218.5 259.4 205.4 257.6 M 235.6 302.8 C 218.7 310.3 203.9 321.4 188.6 331.6 C 161.4 353.6 132.1 373.8 110.5 401.6 C 98.2 416.3 88.0 434.2 90.1 454.0 C 89.0 461.6 95.5 467.3 102.8 464.8 C 131.4 457.2 154.7 437.6 177.7 419.6 C 193.6 404.4 205.3 385.3 219.1 368.2 C 233.1 350.0 237.1 327.1 240.2 305.0 C 238.7 304.2 237.1 303.5 235.6 302.8 Z" />
<path fill="#121212" stroke="#121212" stroke-width="0.09375" opacity="1.00" d=" M 662.4 127.4 C 669.4 125.2 674.1 132.3 676.3 138.0 C 682.2 134.3 692.2 133.0 696.1 139.9 C 703.6 148.2 693.7 159.2 685.5 162.6 C 677.5 162.8 673.6 172.7 665.2 171.1 C 658.8 165.8 661.1 156.8 656.7 150.3 C 653.3 142.9 652.3 129.2 662.4 127.4 M 663.0 137.1 C 662.9 140.8 663.8 144.5 665.3 148.0 C 669.5 147.2 668.1 135.6 663.0 137.1 M 684.3 146.3 C 681.2 147.5 678.8 150.5 677.0 153.3 C 678.3 155.9 692.8 146.4 684.3 146.3 Z" />
<path fill="#121212" stroke="#121212" stroke-width="0.09375" opacity="1.00" d=" M 465.4 173.3 C 474.9 171.1 483.4 182.5 481.2 191.0 C 477.2 198.8 469.5 192.5 463.4 193.3 C 454.0 203.0 450.3 218.2 450.4 231.4 C 451.9 253.4 481.3 249.1 493.7 239.6 C 493.9 223.4 493.0 206.1 501.6 191.5 C 504.5 182.0 517.0 169.9 525.8 180.2 C 538.8 198.7 536.8 227.7 517.2 241.2 C 510.4 251.1 531.6 247.7 528.0 257.9 C 521.6 266.0 510.2 261.6 503.4 256.4 C 495.5 254.2 489.7 261.1 482.7 262.5 C 468.8 268.2 449.5 265.3 442.2 250.9 C 430.3 230.7 438.2 206.3 448.0 187.0 C 452.0 180.6 457.6 174.4 465.4 173.3 M 514.3 191.1 C 508.7 200.0 505.5 210.5 506.0 221.0 C 516.2 220.3 518.7 197.6 514.3 191.1 Z" />
<path fill="#121212" stroke="#121212" stroke-width="0.09375" opacity="1.00" d=" M 396.4 174.3 C 405.4 171.7 412.2 181.3 411.4 189.5 C 413.1 210.5 408.3 238.3 429.0 251.2 C 430.6 272.5 401.3 263.7 397.7 248.6 C 387.0 252.5 381.9 268.2 368.1 265.9 C 350.9 263.1 350.9 240.9 354.6 227.5 C 357.6 204.0 373.4 181.5 396.4 174.3 M 387.5 190.5 C 373.5 199.3 366.2 216.9 365.2 232.8 C 364.8 241.7 376.7 239.9 380.3 234.2 C 392.9 224.3 396.1 206.9 393.2 191.9 C 392.4 188.9 389.7 189.9 387.5 190.5 Z" />
<path fill="#121212" stroke="#121212" stroke-width="0.09375" opacity="1.00" d=" M 626.1 177.0 C 638.2 173.8 640.4 189.4 638.3 198.1 C 638.3 214.5 629.3 232.2 637.2 247.7 C 642.6 254.2 648.4 245.5 650.8 240.8 C 657.2 223.4 660.1 204.5 663.6 186.6 C 669.1 179.7 676.6 188.0 674.7 194.6 C 673.7 212.2 661.8 234.6 675.2 249.3 C 682.2 245.4 684.3 237.5 686.2 230.2 C 689.5 216.0 694.4 201.8 696.5 187.5 C 702.0 178.1 710.0 189.2 709.4 196.4 C 715.0 194.3 717.1 188.1 721.7 184.7 C 728.4 177.5 742.0 176.5 746.9 186.2 C 755.4 207.0 746.1 230.8 756.0 251.1 C 759.3 258.0 771.9 255.5 770.0 247.0 C 768.2 222.7 778.1 198.5 796.3 182.4 C 804.3 175.3 818.9 174.7 824.3 184.9 C 827.2 197.8 822.6 210.9 823.1 224.0 C 828.9 253.7 821.8 288.7 844.4 312.6 C 854.8 322.8 858.7 337.2 863.6 350.4 C 874.6 378.6 886.0 407.4 889.0 437.9 C 889.2 455.3 869.7 465.7 854.4 459.6 C 834.0 450.1 821.3 430.2 810.9 411.0 C 808.2 410.5 806.2 411.4 804.9 413.9 C 793.2 430.9 779.3 451.2 756.8 452.9 C 743.2 453.6 731.4 442.6 727.7 430.2 C 720.2 384.2 751.6 344.4 785.0 316.9 C 795.4 308.0 808.4 301.8 817.0 290.8 C 817.7 278.7 815.2 266.5 814.5 254.6 C 811.6 246.9 806.3 256.0 802.7 258.7 C 794.2 267.9 780.6 265.3 770.0 270.0 C 755.8 276.2 736.2 267.9 734.6 251.6 C 730.1 234.5 738.0 216.5 733.8 199.8 C 717.4 215.1 715.7 240.3 707.0 260.1 C 699.9 263.3 695.8 259.2 693.0 253.0 C 685.9 254.9 680.6 265.1 671.7 261.3 C 664.6 257.2 659.9 258.6 653.4 263.4 C 641.0 271.3 628.9 261.8 617.4 258.8 C 604.9 270.9 586.8 263.6 578.7 250.7 C 571.6 259.4 558.4 269.7 548.3 258.7 C 535.1 236.9 548.4 211.0 552.2 188.2 C 552.5 181.1 562.9 173.0 565.0 183.4 C 562.4 197.5 559.2 211.4 556.1 225.3 C 556.3 229.7 555.3 237.0 561.9 235.0 C 577.6 229.2 572.7 206.0 587.2 199.8 C 590.2 202.5 593.8 205.8 592.5 210.2 C 589.5 221.4 590.4 234.7 598.8 243.2 C 604.0 247.4 609.4 241.4 612.7 237.7 C 626.8 220.6 621.0 196.3 626.1 177.0 M 803.3 191.2 C 790.8 201.9 782.2 218.9 781.4 235.6 C 779.4 242.0 783.8 248.3 790.6 245.7 C 800.5 235.8 803.8 221.3 808.4 208.4 C 810.6 202.4 814.1 188.3 803.3 191.2 M 813.4 310.3 C 776.9 335.0 737.6 370.8 738.0 418.6 C 746.2 435.2 767.9 422.6 776.8 412.8 C 800.4 388.6 818.8 357.7 820.5 323.4 C 821.9 318.0 821.2 307.7 813.4 310.3 M 833.2 331.0 C 828.3 348.2 825.4 366.0 818.0 382.4 C 818.2 393.2 827.1 401.2 831.4 410.6 C 836.2 421.5 843.2 432.5 853.4 438.7 C 866.5 442.5 872.1 425.0 867.7 415.2 C 862.4 386.3 850.7 359.1 838.6 332.3 C 838.0 329.9 835.0 331.4 833.2 331.0 Z" />
<path fill="#121212" stroke="#121212" stroke-width="0.09375" opacity="1.00" d=" M 1237.3 181.1 C 1247.1 178.7 1247.9 191.0 1249.2 197.8 C 1253.8 215.3 1246.4 232.7 1246.0 250.1 C 1252.4 248.8 1259.2 249.7 1265.4 247.6 C 1284.3 233.8 1293.2 209.8 1295.1 187.2 C 1297.7 184.3 1300.6 182.3 1304.6 183.2 C 1328.8 193.3 1343.0 223.8 1336.2 249.1 C 1333.8 263.6 1318.9 276.1 1304.0 272.2 C 1297.1 268.7 1288.0 258.0 1297.4 252.2 C 1306.4 253.2 1318.2 256.9 1323.1 246.1 C 1325.9 231.5 1323.8 209.3 1308.3 202.6 C 1296.0 225.0 1289.9 254.6 1265.6 267.7 C 1255.9 270.0 1247.3 263.8 1243.6 255.2 C 1238.0 255.3 1234.3 262.5 1229.4 265.3 C 1217.8 270.9 1202.8 264.6 1198.6 252.4 C 1191.5 240.4 1186.1 260.4 1178.6 262.6 C 1171.3 269.3 1161.1 264.0 1158.5 255.4 C 1153.3 234.5 1153.6 211.9 1160.2 191.3 C 1162.2 187.5 1166.2 187.8 1170.0 187.9 C 1173.4 202.9 1163.9 218.6 1169.5 233.4 C 1171.7 238.3 1176.1 238.5 1180.9 238.0 C 1190.4 225.9 1190.3 209.0 1196.4 195.4 C 1199.7 189.2 1209.0 192.1 1208.6 199.0 C 1206.1 211.5 1203.0 225.0 1207.6 237.5 C 1213.6 247.0 1228.5 241.0 1234.1 233.1 C 1239.1 223.3 1236.4 211.8 1236.9 201.2 C 1235.7 194.8 1230.5 185.7 1237.3 181.1 Z" />
<path fill="#121212" stroke="#121212" stroke-width="0.09375" opacity="1.00" d=" M 1120.4 184.3 C 1126.7 183.1 1134.7 185.7 1137.1 192.1 C 1141.3 208.2 1128.0 223.1 1114.4 229.4 C 1105.8 234.6 1111.5 245.9 1116.1 252.0 C 1124.0 254.4 1126.9 241.2 1135.0 244.9 C 1143.2 249.5 1139.8 261.0 1135.4 267.3 C 1120.4 277.5 1096.1 268.3 1095.1 248.9 C 1092.3 226.0 1096.9 194.6 1120.4 184.3 M 1120.5 199.5 C 1115.3 201.8 1111.8 207.7 1113.1 213.4 C 1120.1 213.9 1128.9 199.2 1120.5 199.5 Z" />
</svg>
