<?xml version="1.0" encoding="UTF-8" standalone="no"?>
<svg
   xmlns:dc="http://purl.org/dc/elements/1.1/"
   xmlns:cc="http://creativecommons.org/ns#"
   xmlns:rdf="http://www.w3.org/1999/02/22-rdf-syntax-ns#"
   xmlns:svg="http://www.w3.org/2000/svg"
   xmlns="http://www.w3.org/2000/svg"
   xmlns:sodipodi="http://sodipodi.sourceforge.net/DTD/sodipodi-0.dtd"
   xmlns:inkscape="http://www.inkscape.org/namespaces/inkscape"
   width="1600pt"
   height="500pt"
   viewBox="0 0 1600 500"
   version="1.1"
   id="svg2"
   inkscape:version="0.48.5 r10040"
   sodipodi:docname="lacewing_logo_black.svg">
  <metadata
     id="metadata26">
    <rdf:RDF>
      <cc:Work
         rdf:about="">
        <dc:format>image/svg+xml</dc:format>
        <dc:type
           rdf:resource="http://purl.org/dc/dcmitype/StillImage" />
        <dc:title></dc:title>
      </cc:Work>
    </rdf:RDF>
  </metadata>
  <defs
     id="defs24">
    <filter
       inkscape:label="Invert"
       x="0"
       y="0"
       width="1"
       height="1"
       inkscape:menu="Color"
       inkscape:menu-tooltip="Invert colors"
       color-interpolation-filters="sRGB"
       id="filter3003">
      <feColorMatrix
         type="saturate"
         values="1"
         result="fbSourceGraphic"
         id="feColorMatrix3005" />
      <feColorMatrix
         in="fbSourceGraphic"
         values="-1 0 0 0 1 0 -1 0 0 1 0 0 -1 0 1 0 0 0 1 0 "
         id="feColorMatrix3007" />
    </filter>
    <filter
       inkscape:label="Invert"
       x="0"
       y="0"
       width="1"
       height="1"
       inkscape:menu="Color"
       inkscape:menu-tooltip="Invert colors"
       color-interpolation-filters="sRGB"
       id="filter3009">
      <feColorMatrix
         type="saturate"
         values="1"
         result="fbSourceGraphic"
         id="feColorMatrix3011" />
      <feColorMatrix
         in="fbSourceGraphic"
         values="-1 0 0 0 1 0 -1 0 0 1 0 0 -1 0 1 0 0 0 1 0 "
         id="feColorMatrix3013" />
    </filter>
    <filter
       inkscape:label="Invert"
       x="0"
       y="0"
       width="1"
       height="1"
       inkscape:menu="Color"
       inkscape:menu-tooltip="Invert colors"
       color-interpolation-filters="sRGB"
       id="filter3015">
      <feColorMatrix
         type="saturate"
         values="1"
         result="fbSourceGraphic"
         id="feColorMatrix3017" />
      <feColorMatrix
         in="fbSourceGraphic"
         values="-1 0 0 0 1 0 -1 0 0 1 0 0 -1 0 1 0 0 0 1 0 "
         id="feColorMatrix3019" />
    </filter>
    <filter
       inkscape:label="Invert"
       x="0"
       y="0"
       width="1"
       height="1"
       inkscape:menu="Color"
       inkscape:menu-tooltip="Invert colors"
       color-interpolation-filters="sRGB"
       id="filter3021">
      <feColorMatrix
         type="saturate"
         values="1"
         result="fbSourceGraphic"
         id="feColorMatrix3023" />
      <feColorMatrix
         in="fbSourceGraphic"
         values="-1 0 0 0 1 0 -1 0 0 1 0 0 -1 0 1 0 0 0 1 0 "
         id="feColorMatrix3025" />
    </filter>
    <filter
       inkscape:label="Invert"
       x="0"
       y="0"
       width="1"
       height="1"
       inkscape:menu="Color"
       inkscape:menu-tooltip="Invert colors"
       color-interpolation-filters="sRGB"
       id="filter3027">
      <feColorMatrix
         type="saturate"
         values="1"
         result="fbSourceGraphic"
         id="feColorMatrix3029" />
      <feColorMatrix
         in="fbSourceGraphic"
         values="-1 0 0 0 1 0 -1 0 0 1 0 0 -1 0 1 0 0 0 1 0 "
         id="feColorMatrix3031" />
    </filter>
    <filter
       inkscape:label="Invert"
       x="0"
       y="0"
       width="1"
       height="1"
       inkscape:menu="Color"
       inkscape:menu-tooltip="Invert colors"
       color-interpolation-filters="sRGB"
       id="filter3033">
      <feColorMatrix
         type="saturate"
         values="1"
         result="fbSourceGraphic"
         id="feColorMatrix3035" />
      <feColorMatrix
         in="fbSourceGraphic"
         values="-1 0 0 0 1 0 -1 0 0 1 0 0 -1 0 1 0 0 0 1 0 "
         id="feColorMatrix3037" />
    </filter>
    <filter
       inkscape:label="Invert"
       x="0"
       y="0"
       width="1"
       height="1"
       inkscape:menu="Color"
       inkscape:menu-tooltip="Invert colors"
       color-interpolation-filters="sRGB"
       id="filter3039">
      <feColorMatrix
         type="saturate"
         values="1"
         result="fbSourceGraphic"
         id="feColorMatrix3041" />
      <feColorMatrix
         in="fbSourceGraphic"
         values="-1 0 0 0 1 0 -1 0 0 1 0 0 -1 0 1 0 0 0 1 0 "
         id="feColorMatrix3043" />
    </filter>
    <filter
       inkscape:label="Invert"
       x="0"
       y="0"
       width="1"
       height="1"
       inkscape:menu="Color"
       inkscape:menu-tooltip="Invert colors"
       color-interpolation-filters="sRGB"
       id="filter3045">
      <feColorMatrix
         type="saturate"
         values="1"
         result="fbSourceGraphic"
         id="feColorMatrix3047" />
      <feColorMatrix
         in="fbSourceGraphic"
         values="-1 0 0 0 1 0 -1 0 0 1 0 0 -1 0 1 0 0 0 1 0 "
         id="feColorMatrix3049" />
    </filter>
    <filter
       inkscape:label="Invert"
       x="0"
       y="0"
       width="1"
       height="1"
       inkscape:menu="Color"
       inkscape:menu-tooltip="Invert colors"
       color-interpolation-filters="sRGB"
       id="filter3051">
      <feColorMatrix
         type="saturate"
         values="1"
         result="fbSourceGraphic"
         id="feColorMatrix3053" />
      <feColorMatrix
         in="fbSourceGraphic"
         values="-1 0 0 0 1 0 -1 0 0 1 0 0 -1 0 1 0 0 0 1 0 "
         id="feColorMatrix3055" />
    </filter>
  </defs>
  <sodipodi:namedview
     pagecolor="#ffffff"
     bordercolor="#666666"
     borderopacity="1"
     objecttolerance="10"
     gridtolerance="10"
     guidetolerance="10"
     inkscape:pageopacity="0"
     inkscape:pageshadow="2"
     inkscape:window-width="1920"
     inkscape:window-height="1151"
     id="namedview22"
     showgrid="false"
     inkscape:zoom="0.164"
     inkscape:cx="234.7561"
     inkscape:cy="1775.9146"
     inkscape:window-x="0"
     inkscape:window-y="0"
     inkscape:window-maximized="1"
     inkscape:current-layer="svg2" />
  <path
     d="m 1099.4,14.3 c 22.9,-1 30.2,26.5 27.9,45 0.6,5.1 -4.9,10.8 -9.7,8.2 -10.3,-8.5 2.1,-24.5 -9.4,-32.7 -13.2,-5 -21.9,9.6 -25.5,19.9 -12.5,51.7 -4.3,105.2 -7.3,157.7 -6.9,33.4 2.2,69.9 -13.9,101.1 -4.9,8.7 -18.1,10.2 -24.7,2.7 -9.6,-7.1 -13.3,-18.7 -17.8,-29.2 -10.2,-18.9 -16.6,-39.5 -21.89997,-60.1 -12,-41.6 -27.8,-82.3 -44.4,-122.4 -5.3,-16.2 -10,-32.8 -18.6,-47.6 -3.3,-5.5 -5.5,2.8 -5.1,6.1 -0.6,37.9 7.7,75.2 10,113 0.6,35.8 5.9,71.3 8.1,107 0.8,16.9 -3.3,36.8 -19,46.1 -15.4,7.2 -32.1,-11.2 -30.8,-25.7 6.1,-9.2 17.9,8 25,-2.1 16.5,-23.5 9.3,-53.8 6.9,-80.4 0.4,-61.8 -15.6,-122.6 -12.8,-184.5 3.7,-7.6 14.1,-8.4 19.8,-2.6 15,21.9 22,47.8 30.5,72.5 17.9,40 31.4,81.7 44.59997,123.4 3.7,17.1 10.5,33.3 17.9,49.1 3.1,4.8 9.9,13.1 15.5,6.9 17.7,-20.1 14,-48 18.2,-72.7 0.2,-38.7 0.2,-77.3 0.1,-116 2.8,-20.5 2.9,-42 12.4,-60.7 4.3,-10.4 12.3,-20 24,-22 z"
     id="path4"
     inkscape:connector-curvature="0"
     style="fill:#121212;stroke:#121212;stroke-width:0.09375000000000000;filter:url(#filter3003)" />
  <path
     d="m 1492.4,19.4 c 21.9,-7.4 43.9,14.6 37.4,36.4 -8.5,25.2 -24.8,47.7 -44.6,65.4 -2,1.9 -6.7,6.8 -2.5,8.1 31.6,3.5 64.7,-4.2 95.6,5.4 15.5,6.8 22.6,30.7 11.4,44 -25.3,24.5 -61.2,32.3 -94.7,37.3 -38,2.6 -76.7,0.9 -113.6,-9.3 -6.7,-3.4 -14.7,-3 -20.8,1.1 -9.8,3.5 -15.7,-9.1 -7.9,-15 19.7,-12 40.2,-23.9 56.1,-41 16.7,-15.4 37.1,-26.7 51.5,-44.5 17.9,-18.6 37,-40.8 37.5,-68 -3.6,-13.8 -20.1,-3.9 -29.2,-1.8 -34.9,15.3 -72,32 -96,63 -11.8,17.4 -24.9,34.4 -31.5,54.6 -2.4,7.1 -4.9,22.8 -15.2,18.6 4.6,-33.6 25.1,-62.1 45.5,-88.4 21.8,-24 51.3,-39.1 80.5,-52.4 12.7,-6.3 26.4,-11 40.5,-13.5 m 44,120.1 c -13.1,1.5 -26.4,-0.7 -39.4,1.4 -13.7,1.3 -28.5,-2.8 -41,4.1 -20.2,12.9 -38.1,29 -58.4,41.6 -5.9,2.7 -5.7,9.4 1.4,9.4 44.4,6.4 92.5,10.6 135,-7.1 14.2,-5.9 35.1,-12.9 34,-31.9 0.5,-15.2 -19.5,-19.6 -31.6,-17.5 z"
     id="path6"
     inkscape:connector-curvature="0"
     style="fill:#121212;stroke:#121212;stroke-width:0.09375000000000000;filter:url(#filter3009)" />
  <path
     d="m 281.4,20.4 c 12.9,-0.9 28.2,-1.5 38.4,7.8 17.1,17.4 14.8,45.2 10.7,67.3 -1,6.6 -6.2,23.8 -14.2,16 -1.1,-13.8 7.6,-26.3 4.7,-40.5 2,-19.2 -18.1,-36 -36.7,-33.9 -19.5,6.9 -41,15.4 -51.7,34.5 -14.8,21.3 -25.8,51.3 -11.8,75.7 14.5,32.2 30.6,64.4 35,99.8 1.4,7.3 -0.4,16.3 5.7,21.7 15.7,-2.6 30.9,-9.8 47.4,-7.8 20.4,4.6 31.6,24 43.5,39.5 14.1,11.7 35.8,17.4 52.3,7.2 5.9,-2.7 14.9,-9.9 19.4,-1.7 6.4,10.1 -3.1,22.8 -14,24.1 -16.9,3.2 -36.5,3.8 -50.6,-7.5 -22.7,-12.4 -29.8,-43.2 -55.8,-50.5 -14.6,0.1 -29.4,3.7 -42.4,10.2 -8.2,11.5 -3.4,26.6 -6.5,39.5 -2.6,38.6 -18.1,77.5 -46.8,104.2 -30,31.8 -69.3,64.3 -115.7,59.7 -22.8,-5 -23.1,-34.5 -17.1,-52.3 12.8,-33 41.3,-57.3 66.1,-81.6 -8.2,2.5 -15.3,7.6 -22.6,12 C 93.6,375.7 65.2,380.4 37.5,378.6 24.9,375.3 8.7,370.8 6,355.8 c 3.2,-22.3 22.3,-36.9 38.3,-50.5 41,-35 94.3,-49.1 146.2,-57.8 17.2,-1.9 34.4,0.8 51.5,0.5 2.8,-19.7 -8.2,-38.2 -14.3,-56.5 -8.2,-20.3 -19.3,-39.5 -25.8,-60.5 -5.6,-22.4 1.1,-46.7 16,-64.1 14.7,-22.2 36.7,-41.3 63.5,-46.5 m -76,237.2 c -59.2,7.6 -120.5,25.8 -164.5,68.3 -7.8,8 -19.4,15.8 -19.1,28 12.8,3.8 26.7,-1.1 39.8,-2.2 41.1,-10.8 80.1,-28.9 121.9,-37.2 17.6,-11.6 34.9,-23.9 53.9,-33.2 6.4,-2.6 10.8,-10 7.8,-16.4 -10.5,-9.7 -26.7,-5.5 -39.8,-7.3 m 30.2,45.2 c -16.9,7.5 -31.7,18.6 -47,28.8 -27.2,22 -56.5,42.2 -78.1,70 -12.3,14.7 -22.5,32.6 -20.4,52.4 -1.1,7.6 5.4,13.3 12.7,10.8 28.6,-7.6 51.9,-27.2 74.9,-45.2 15.9,-15.2 27.6,-34.3 41.4,-51.4 14,-18.2 18,-41.1 21.1,-63.2 -1.5,-0.8 -3.1,-1.5 -4.6,-2.2 z"
     id="path8"
     inkscape:connector-curvature="0"
     style="fill:#121212;stroke:#121212;stroke-width:0.09375000000000000;filter:url(#filter3015)" />
  <path
     d="m 662.40003,127.4 c 7,-2.2 11.7,4.9 13.9,10.6 5.9,-3.7 15.9,-5 19.8,1.9 7.5,8.3 -2.4,19.3 -10.6,22.7 -8,0.2 -11.9,10.1 -20.3,8.5 -6.4,-5.3 -4.1,-14.3 -8.5,-20.8 -3.4,-7.4 -4.4,-21.1 5.7,-22.9 m 0.6,9.7 c -0.1,3.7 0.8,7.4 2.3,10.9 4.2,-0.8 2.8,-12.4 -2.3,-10.9 m 21.3,9.2 c -3.1,1.2 -5.5,4.2 -7.3,7 1.3,2.6 15.8,-6.9 7.3,-7 z"
     id="path10"
     inkscape:connector-curvature="0"
     style="fill:#121212;stroke:#121212;stroke-width:0.09375000000000000;filter:url(#filter3021)" />
  <path
     d="m 465.4,173.3 c 9.5,-2.2 18,9.2 15.8,17.7 -4,7.8 -11.7,1.5 -17.8,2.3 -9.4,9.7 -13.1,24.9 -13,38.1 1.5,22 30.9,17.7 43.3,8.2 0.2,-16.2 -0.7,-33.5 7.9,-48.1 2.9,-9.5 15.4,-21.6 24.2,-11.3 13,18.5 11,47.5 -8.6,61 -6.8,9.9 14.4,6.5 10.8,16.7 -6.4,8.1 -17.8,3.7 -24.6,-1.5 -7.9,-2.2 -13.7,4.7 -20.7,6.1 -13.9,5.7 -33.2,2.8 -40.5,-11.6 -11.9,-20.2 -4,-44.6 5.8,-63.9 4,-6.4 9.6,-12.6 17.4,-13.7 m 48.9,17.8 c -5.6,8.9 -8.8,19.4 -8.3,29.9 10.2,-0.7 12.7,-23.4 8.3,-29.9 z"
     id="path12"
     inkscape:connector-curvature="0"
     style="fill:#121212;stroke:#121212;stroke-width:0.09375000000000000;filter:url(#filter3027)" />
  <path
     d="m 396.4,174.3 c 9,-2.6 15.8,7 15,15.2 1.7,21 -3.1,48.8 17.6,61.7 1.6,21.3 -27.7,12.5 -31.3,-2.6 -10.7,3.9 -15.8,19.6 -29.6,17.3 -17.2,-2.8 -17.2,-25 -13.5,-38.4 3,-23.5 18.8,-46 41.8,-53.2 m -8.9,16.2 c -14,8.8 -21.3,26.4 -22.3,42.3 -0.4,8.9 11.5,7.1 15.1,1.4 12.6,-9.9 15.8,-27.3 12.9,-42.3 -0.8,-3 -3.5,-2 -5.7,-1.4 z"
     id="path14"
     inkscape:connector-curvature="0"
     style="fill:#121212;stroke:#121212;stroke-width:0.09375000000000000;filter:url(#filter3033)" />
  <path
     d="m 626.10003,177 c 12.1,-3.2 14.3,12.4 12.2,21.1 0,16.4 -9,34.1 -1.1,49.6 5.4,6.5 11.2,-2.2 13.6,-6.9 6.4,-17.4 9.3,-36.3 12.8,-54.2 5.5,-6.9 13,1.4 11.1,8 -1,17.6 -12.9,40 0.5,54.7 7,-3.9 9.1,-11.8 11,-19.1 3.3,-14.2 8.2,-28.4 10.3,-42.7 5.5,-9.4 13.5,1.7 12.9,8.9 5.6,-2.1 7.7,-8.3 12.3,-11.7 6.7,-7.2 20.3,-8.2 25.2,1.5 8.5,20.8 -0.8,44.6 9.1,64.9 3.3,6.9 15.9,4.4 14,-4.1 -1.8,-24.3 8.1,-48.5 26.3,-64.6 8,-7.1 22.6,-7.7 28,2.5 2.9,12.9 -1.7,26 -1.2,39.1 5.8,29.7 -1.3,64.7 21.3,88.6 10.4,10.2 14.3,24.6 19.2,37.8 11,28.2 22.4,57 25.4,87.5 0.2,17.4 -19.3,27.8 -34.6,21.7 -20.4,-9.5 -33.1,-29.4 -43.5,-48.6 -2.7,-0.5 -4.7,0.4 -6,2.9 -11.7,17 -25.6,37.3 -48.1,39 -13.6,0.7 -25.4,-10.3 -29.1,-22.7 -7.5,-46 23.9,-85.8 57.3,-113.3 10.4,-8.9 23.4,-15.1 32,-26.1 0.7,-12.1 -1.8,-24.3 -2.5,-36.2 -2.9,-7.7 -8.2,1.4 -11.8,4.1 -8.5,9.2 -22.1,6.6 -32.7,11.3 -14.2,6.2 -33.8,-2.1 -35.4,-18.4 -4.5,-17.1 3.4,-35.1 -0.8,-51.8 -16.4,15.3 -18.1,40.5 -26.8,60.3 -7.1,3.2 -11.2,-0.9 -14,-7.1 -7.1,1.9 -12.4,12.1 -21.3,8.3 -7.1,-4.1 -11.8,-2.7 -18.3,2.1 -12.4,7.9 -24.5,-1.6 -36,-4.6 -12.5,12.1 -30.60003,4.8 -38.70003,-8.1 -7.1,8.7 -20.3,19 -30.4,8 -13.2,-21.8 0.1,-47.7 3.9,-70.5 0.3,-7.1 10.7,-15.2 12.8,-4.8 -2.6,14.1 -5.8,28 -8.9,41.9 0.2,4.4 -0.8,11.7 5.8,9.7 15.7,-5.8 10.8,-29 25.3,-35.2 3,2.7 6.6,6 5.3,10.4 -3,11.2 -2.1,24.5 6.3,33 5.20003,4.2 10.60003,-1.8 13.90003,-5.5 14.1,-17.1 8.3,-41.4 13.4,-60.7 m 177.2,14.2 c -12.5,10.7 -21.1,27.7 -21.9,44.4 -2,6.4 2.4,12.7 9.2,10.1 9.9,-9.9 13.2,-24.4 17.8,-37.3 2.2,-6 5.7,-20.1 -5.1,-17.2 m 10.1,119.1 c -36.5,24.7 -75.8,60.5 -75.4,108.3 8.2,16.6 29.9,4 38.8,-5.8 23.6,-24.2 42,-55.1 43.7,-89.4 1.4,-5.4 0.7,-15.7 -7.1,-13.1 m 19.8,20.7 c -4.9,17.2 -7.8,35 -15.2,51.4 0.2,10.8 9.1,18.8 13.4,28.2 4.8,10.9 11.8,21.9 22,28.1 13.1,3.8 18.7,-13.7 14.3,-23.5 -5.3,-28.9 -17,-56.1 -29.1,-82.9 -0.6,-2.4 -3.6,-0.9 -5.4,-1.3 z"
     id="path16"
     inkscape:connector-curvature="0"
     style="fill:#121212;stroke:#121212;stroke-width:0.09375000000000000;filter:url(#filter3039)" />
  <path
     d="m 1237.3,181.1 c 9.8,-2.4 10.6,9.9 11.9,16.7 4.6,17.5 -2.8,34.9 -3.2,52.3 6.4,-1.3 13.2,-0.4 19.4,-2.5 18.9,-13.8 27.8,-37.8 29.7,-60.4 2.6,-2.9 5.5,-4.9 9.5,-4 24.2,10.1 38.4,40.6 31.6,65.9 -2.4,14.5 -17.3,27 -32.2,23.1 -6.9,-3.5 -16,-14.2 -6.6,-20 9,1 20.8,4.7 25.7,-6.1 2.8,-14.6 0.7,-36.8 -14.8,-43.5 -12.3,22.4 -18.4,52 -42.7,65.1 -9.7,2.3 -18.3,-3.9 -22,-12.5 -5.6,0.1 -9.3,7.3 -14.2,10.1 -11.6,5.6 -26.6,-0.7 -30.8,-12.9 -7.1,-12 -12.5,8 -20,10.2 -7.3,6.7 -17.5,1.4 -20.1,-7.2 -5.2,-20.9 -4.9,-43.5 1.7,-64.1 2,-3.8 6,-3.5 9.8,-3.4 3.4,15 -6.1,30.7 -0.5,45.5 2.2,4.9 6.6,5.1 11.4,4.6 9.5,-12.1 9.4,-29 15.5,-42.6 3.3,-6.2 12.6,-3.3 12.2,3.6 -2.5,12.5 -5.6,26 -1,38.5 6,9.5 20.9,3.5 26.5,-4.4 5,-9.8 2.3,-21.3 2.8,-31.9 -1.2,-6.4 -6.4,-15.5 0.4,-20.1 z"
     id="path18"
     inkscape:connector-curvature="0"
     style="fill:#121212;stroke:#121212;stroke-width:0.09375000000000000;filter:url(#filter3045)" />
  <path
     d="m 1120.4,184.3 c 6.3,-1.2 14.3,1.4 16.7,7.8 4.2,16.1 -9.1,31 -22.7,37.3 -8.6,5.2 -2.9,16.5 1.7,22.6 7.9,2.4 10.8,-10.8 18.9,-7.1 8.2,4.6 4.8,16.1 0.4,22.4 -15,10.2 -39.3,1 -40.3,-18.4 -2.8,-22.9 1.8,-54.3 25.3,-64.6 m 0.1,15.2 c -5.2,2.3 -8.7,8.2 -7.4,13.9 7,0.5 15.8,-14.2 7.4,-13.9 z"
     id="path20"
     inkscape:connector-curvature="0"
     style="fill:#121212;stroke:#121212;stroke-width:0.09375000000000000;filter:url(#filter3051)" />
</svg>
